<svg width="123" height="124" viewBox="0 0 123 124" fill="none" xmlns="http://www.w3.org/2000/svg">
<g clip-path="url(#clip0_2_18)">
<rect width="123" height="124" fill="white"/>
<path d="M63.12 111.56C54.672 111.56 47.4187 110.109 41.36 107.208C35.3013 104.221 30.3093 100.339 26.384 95.56C22.4587 90.696 19.5573 85.448 17.68 79.816C15.8027 74.184 14.864 68.7227 14.864 63.432V60.616C14.864 54.728 15.8027 48.968 17.68 43.336C19.6427 37.6187 22.5867 32.456 26.512 27.848C30.5227 23.24 35.5147 19.5707 41.488 16.84C47.4613 14.1093 54.4587 12.744 62.48 12.744C71.0133 12.744 78.5653 14.3653 85.136 17.608C91.792 20.7653 97.1253 25.2453 101.136 31.048C105.147 36.7653 107.493 43.4213 108.176 51.016H84.368C83.7707 47.7733 82.4907 44.9573 80.528 42.568C78.5653 40.1787 76.048 38.344 72.976 37.064C69.904 35.6987 66.4053 35.016 62.48 35.016C58.8107 35.016 55.4827 35.656 52.496 36.936C49.5947 38.216 47.12 40.0507 45.072 42.44C43.1093 44.744 41.5733 47.56 40.464 50.888C39.44 54.216 38.928 57.9707 38.928 62.152C38.928 66.3333 39.44 70.088 40.464 73.416C41.5733 76.744 43.152 79.6027 45.2 81.992C47.3333 84.3813 49.8933 86.216 52.88 87.496C55.8667 88.6907 59.28 89.288 63.12 89.288C69.0933 89.288 74.128 87.8373 78.224 84.936C82.4053 82.0347 84.9227 78.152 85.776 73.288H109.584C108.816 80.2853 106.469 86.6853 102.544 92.488C98.6187 98.2907 93.328 102.941 86.672 106.44C80.016 109.853 72.1653 111.56 63.12 111.56Z" fill="black"/>
<ellipse cx="57.5" cy="53" rx="12.5" ry="13" fill="black"/>
<circle cx="61" cy="47" r="4" fill="white"/>
</g>
<defs>
<clipPath id="clip0_2_18">
<rect width="123" height="124" fill="white"/>
</clipPath>
</defs>
</svg>
